<svg width="192" height="192" viewBox="0 0 192 192" fill="none" xmlns="http://www.w3.org/2000/svg">
<g clip-path="url(#clip0_9_4)">
<rect width="192" height="192" fill="#D3D3D3"/>
<path d="M14.5505 191.764C10.0548 188.001 6.16205 183.615 2.43343 179.101C-14.272 158.95 -24.5008 134.223 -26.9124 108.159C-30.1676 73.5775 -19.4822 39.1267 2.77142 12.4565C24.8359 -14.0334 56.4954 -30.7043 90.8212 -33.9079C125.404 -37.171 159.857 -26.4897 186.528 -4.23679C213.074 17.8523 229.763 49.5781 232.926 83.967C236.177 118.678 225.366 153.242 202.916 179.915C197.085 186.898 190.514 193.228 183.318 198.794C182.399 199.511 180.953 200.849 180.02 201.298L179.7 201.289C179.071 202.302 176.684 203.815 175.603 204.47C170.042 207.984 153.325 217.627 147.435 218.571C145.68 219.247 140.55 221.247 138.909 221.422C137.691 222.182 130.829 223.46 129.15 223.801C108.503 228.013 87.1475 227.188 66.888 221.397C62.3544 220.113 56.6811 218.295 52.5322 216.21C53.5336 216.181 55.5097 216.229 56.3423 215.856C48.8193 215.918 44.7409 212.906 38.3029 209.247C35.6393 208.651 22.1314 198.421 19.2679 196.067C17.6813 194.716 15.9324 193.301 14.5505 191.764Z" fill="black"/>
<path d="M14.5505 191.764C10.0548 188.001 6.16205 183.615 2.43343 179.101C-14.272 158.95 -24.5008 134.223 -26.9124 108.159C-30.1676 73.5774 -19.4822 39.1267 2.77142 12.4565C24.8359 -14.0334 56.4954 -30.7043 90.8212 -33.9079C125.404 -37.171 159.857 -26.4897 186.528 -4.23679C213.074 17.8523 229.763 49.5781 232.926 83.967C236.177 118.678 225.366 153.242 202.916 179.915C197.085 186.898 190.514 193.228 183.318 198.794C182.399 199.511 180.953 200.849 180.02 201.298L179.7 201.289C178.344 199.338 177.429 198.157 175.874 196.362C177.568 197.114 180.385 198.458 182.21 197.862C184.027 196.085 183.193 181.3 184.312 178.306C187.331 171.056 191.259 163.098 195.26 156.347C196.663 153.978 215.95 144.142 214.037 141.016C211.985 139.628 206.321 138.948 203.776 138.647C207.137 132.024 207.863 126.495 208.213 119.195C209.682 88.532 190.502 64.4332 186.432 34.9813C185.327 26.9889 185.05 19.3261 185.546 11.2367C185.703 8.6574 187.387 0.814835 186.875 -0.974759L186.326 -1.15521C184.493 -0.916985 182.911 0.679329 181.58 1.91749C172.506 10.3572 167.316 24.1056 167.035 36.42C160.384 46.2496 152.419 56.665 145.32 66.2268C142.906 62.4369 138.266 56.8191 135.414 53.1856L118.764 31.8901L88.8972 -6.39233C84.5208 -11.9956 80.1959 -17.6563 75.8239 -23.2604C74.8624 -24.4597 74.095 -25.3245 72.7334 -26.0228C70.213 -27.3158 66.5284 -25.956 65.2819 -23.388C62.8763 -18.432 60.7822 -13.0943 58.6359 -7.95301L46.8901 20.0669C34.3388 49.5532 21.9431 79.105 9.70331 108.723C7.05751 107.923 -1.18862 106.217 -3.53359 107.997C-3.97617 108.558 -4.06903 109.104 -4.04425 109.799C-3.80964 116.377 10.4579 140.882 15.0922 146.66C17.5613 149.738 20.9496 151.822 23.4064 154.821C26.7376 158.886 28.6972 162.985 32.7159 166.758C29.3903 169.522 24.8118 173.756 25.0164 178.44C25.0115 179.487 25.5468 181.441 24.6322 182.203C20.9934 185.238 17.8181 188.344 14.5505 191.764Z" fill="#D3D3D3"/>
<path d="M147.435 218.571C139.707 213.64 131.447 209.602 122.809 206.532C121.275 205.986 119.265 205.136 117.661 205.014L117.577 204.734C118.483 203.851 119.502 203.343 120.563 202.674C131.507 195.776 142.593 189.026 152.866 181.145C155.359 184.444 159.419 186.246 162.723 189.126C168.41 194.081 171.308 198.629 175.603 204.47C170.042 207.984 153.325 217.627 147.435 218.571Z" fill="#BEBEB8"/>
<path d="M32.4705 185.047C35.4611 186.839 39.7287 188.327 42.9252 189.829C52.6445 194.394 67.4176 199.485 76.1123 205.215C66.158 209.127 59.0827 210.722 48.0637 210.195C46.2657 210.109 39.5657 209.122 38.3031 209.247C35.6394 208.651 22.1315 198.421 19.2681 196.067C22.7952 191.24 27.5206 188.139 32.4705 185.047Z" fill="#BEBEB8"/>
<path d="M111.968 96.3968C117.692 96.0065 150.862 96.2554 154.872 98.5774C156.666 99.6156 158.042 109.136 158.612 111.48C156.795 108.997 155.424 107.144 152.971 105.327C138.463 94.5792 119.316 106.745 122.237 124.39C123.389 131.347 127.094 135.996 133.004 139.691C134.3 140.502 135.512 142.789 133.961 143.988C129.784 147.036 124.159 146.179 119.208 145.917C117.283 145.815 112.365 146.334 115.411 149.756C116.265 150.714 120.946 150.847 122.562 150.837C127.894 150.806 135.225 151.396 138.556 146.202C139.904 144.112 139.753 142.386 139.263 140.12C150.166 140.1 154.752 136.704 159.852 127.361C158.609 138.828 156.828 149.163 150.062 158.935C140.243 173.115 125.073 180.561 108.499 183.619C91.0921 186.43 73.2433 184.177 57.08 177.13C47.886 173.011 39.3461 166.975 33.0511 159.045C32.457 158.296 31.8704 157.544 31.5266 156.644L31.7708 156.355C34.0533 156.619 37.4899 156.788 36.7431 153.235C36.4352 152.689 35.9639 152.12 35.3466 151.949C29.1291 150.23 25.4207 148.78 21.2185 143.63C13.8269 134.571 9.33945 123.678 3.8208 113.451C5.03352 113.75 6.48984 113.999 7.70947 114.235C14.6907 115.577 20.9914 119.241 25.1212 125.096C26.3922 126.897 27.712 130.932 29.8332 131.533C31.3421 131.968 32.4231 129.943 32.3286 128.733C32.0271 124.876 27.3355 119.746 24.9308 116.993C48.6888 102.582 84.5352 97.4504 111.968 96.3968Z" fill="#DEAE89"/>
<path d="M94.6024 102.044C105.413 100.815 115.172 108.585 116.395 119.396C117.618 130.208 109.841 139.961 99.0292 141.177C88.2263 142.393 78.4825 134.625 77.2612 123.823C76.0388 113.021 83.8017 103.273 94.6024 102.044Z" fill="black"/>
<path d="M94.3491 107.323C102.338 105.913 109.949 111.267 111.322 119.262C112.694 127.258 107.304 134.844 99.3032 136.179C91.354 137.506 83.829 132.158 82.4652 124.217C81.1014 116.274 86.413 108.724 94.3491 107.323Z" fill="#E4DDDD"/>
<path d="M102.102 115.465C104.872 115.566 107.286 116.777 108.29 119.505C108.886 121.126 108.789 122.921 108.023 124.467C107.006 126.529 105.606 127.276 103.55 127.952C98.2628 128.033 97.081 125.174 96.7664 120.501C96.9736 119.992 97.2147 119.497 97.4855 119.019C98.6684 116.91 99.8206 116.112 102.102 115.465Z" fill="black"/>
<path d="M106.367 157.519C112.182 157.467 118.458 157.206 124.205 157.672C128.503 158.021 128.298 162.396 122.862 162.329C119.727 162.323 104.185 162.818 102.873 161.817C102.331 161.404 101.955 160.782 101.887 160.102C101.819 159.436 102.08 158.745 102.551 158.274C103.413 157.409 105.214 157.565 106.367 157.519Z" fill="black"/>
<path d="M70.4248 -18.1591C71.0453 -17.6847 75.5532 -11.8189 76.3382 -10.8139L90.4662 7.23618L157.554 92.7166C153.597 91.9755 145.373 91.4131 141.199 91.1883C122.148 90.1436 103.041 90.9822 84.1537 93.6923C62.1785 97.0787 40.2233 101.469 21.2413 113.748L15.26 110.961C17.4517 105.282 20.3679 98.7692 22.7384 93.0893L43.2201 44.8106L60.9976 3.07452C63.9481 -3.72766 67.1896 -11.5731 70.4248 -18.1591Z" fill="#C0D08C"/>
<path d="M167.315 45.7988C167.774 46.2885 169.935 57.8335 170.56 59.9066C177.6 83.2753 193.02 107.415 181.489 132.11C180.608 133.997 179.024 137.273 177.422 138.868C166.463 145.708 165.211 143.063 170.734 156.213C167.874 161.246 165.282 167.167 161.955 171.678C161.209 172.691 159.351 173.499 158.164 174.085C156.254 172.075 152.651 169.338 150.299 167.905C152.878 165.047 154.342 162.954 156.405 159.701C156.576 159.439 156.743 159.174 156.905 158.907C160.833 152.442 178.868 110.32 177.561 104.887C175.596 102.531 166.573 106.479 163.897 107.503C163.217 104.769 162.243 101.927 161.373 99.2319C163.505 99.7252 169.275 101.059 170.573 98.9008C169.921 96.865 151.484 73.5599 149.02 71.0044C154.778 63.3161 162.243 53.9086 167.315 45.7988Z" fill="#D3D3D3"/>
<path d="M178.164 17.2294C178.512 17.9893 178.682 25.9309 178.763 27.3697C179.18 33.8715 180.16 40.3248 181.692 46.6571C187.607 72.0492 203.489 94.6165 201.215 121.601C200.648 128.329 198.955 136.946 194.156 142.039C196.389 142.77 198.939 143.815 201.161 144.665C198.996 145.918 193.294 150.914 191.703 150.82C188.473 149.442 183.086 147.18 179.868 146.128C188.798 137.793 191.842 127.067 192.436 115.267C193.491 94.292 182.94 77.545 177.238 58.1548C173.529 45.5439 171.507 29.2361 178.164 17.2294Z" fill="#DBF2D2"/>
<path d="M139.343 106.683C147.22 105.681 154.427 111.23 155.472 119.1C156.518 126.97 151.01 134.208 143.145 135.298C135.219 136.395 127.912 130.835 126.858 122.902C125.804 114.969 131.405 107.693 139.343 106.683Z" fill="#E4DDDD"/>
<path d="M145.69 115.164C147.809 114.641 150.046 115.307 151.537 116.902C153.028 118.498 153.539 120.775 152.874 122.855C152.208 124.935 150.471 126.492 148.331 126.927C145.115 127.579 141.968 125.541 141.249 122.34C140.531 119.138 142.504 115.949 145.69 115.164Z" fill="black"/>
<path d="M175.912 150.875C177.777 151.283 185.786 155.268 187.751 156.225C185.002 162.656 181.028 169.09 178.535 175.536C177.454 178.331 177.795 185.928 177.488 189.517L175.45 187.821C171.372 184.606 166.569 181.643 162.164 178.832C164.489 177.828 165.973 177.141 168.168 175.897L167.918 175.895C169.551 170.168 174.274 163.32 176.695 157.359C176.354 155.307 176.128 152.956 175.912 150.875Z" fill="#D2AB48"/>
<path d="M115.23 187.955L115.991 187.895C118.463 190.189 114.812 197.572 113.3 199.909C113.95 182.556 103.796 198.567 98.24 198.634C92.4844 198.704 89.3863 192.598 81.3778 193.36C80.4482 194.906 79.9724 198.336 79.5646 200.28C76.6813 195.504 75.4655 194.157 74.3418 188.601C83.8631 190 93.5149 190.274 103.101 189.419C107.168 189.038 111.13 188.292 115.23 187.955Z" fill="#BEBEB8"/>
<path d="M106.367 157.519C112.181 157.467 118.458 157.206 124.204 157.672C128.503 158.021 128.298 162.396 122.861 162.329C119.727 162.323 104.185 162.818 102.873 161.817C102.331 161.404 101.955 160.782 101.887 160.102C101.819 159.436 102.08 158.745 102.55 158.274C103.413 157.409 105.213 157.565 106.367 157.519Z" fill="#31312C"/>
</g>
<defs>
<clipPath id="clip0_9_4">
<rect width="192" height="192" fill="white"/>
</clipPath>
</defs>
</svg>
