<svg width="270" height="270" viewBox="0 0 270 270" fill="none" xmlns="http://www.w3.org/2000/svg">
<g clip-path="url(#clip0_10_145)">
<rect width="270" height="270" rx="135" fill="#E4DDDD"/>
<path d="M0 0H270V270H0V0Z" fill="#E4DDDD"/>
<path d="M131.824 5.04367C203.559 3.28929 263.149 59.9909 264.957 131.725C266.765 203.458 210.108 263.09 138.376 264.953C66.5674 266.817 6.85827 210.086 5.04809 138.276C3.23792 66.4664 60.013 6.79992 131.824 5.04367Z" fill="#061003"/>
<path d="M54.3197 222.352C50.2189 218.92 46.6681 214.919 43.267 210.802C28.0289 192.421 18.6986 169.866 16.4988 146.091C13.5296 114.547 23.2764 83.1223 43.5753 58.7948C63.7017 34.6317 92.5803 19.4251 123.891 16.5029C155.436 13.5265 186.863 23.2695 211.191 43.5678C235.405 63.7166 250.628 92.6557 253.514 124.024C256.479 155.686 246.618 187.214 226.14 211.544C220.821 217.914 214.827 223.688 208.263 228.765C207.425 229.419 206.106 230.639 205.255 231.049L204.963 231.041C204.389 231.965 202.212 233.345 201.226 233.942C196.153 237.148 180.905 245.944 175.532 246.805C173.931 247.421 169.252 249.246 167.755 249.405C166.644 250.098 160.385 251.264 158.853 251.575C140.02 255.417 120.54 254.665 102.06 249.382C97.9246 248.211 92.7497 246.553 88.9652 244.651C89.8786 244.625 91.6812 244.668 92.4406 244.328C85.5784 244.385 81.8583 241.637 75.9858 238.3C73.5561 237.756 61.2347 228.425 58.6228 226.277C57.1755 225.045 55.5802 223.754 54.3197 222.352Z" fill="black"/>
<path d="M54.3197 222.352C50.2189 218.92 46.6681 214.919 43.267 210.802C28.0289 192.421 18.6986 169.866 16.4988 146.091C13.5296 114.547 23.2764 83.1223 43.5753 58.7948C63.7017 34.6317 92.5803 19.4251 123.891 16.5029C155.436 13.5265 186.863 23.2695 211.191 43.5678C235.405 63.7166 250.628 92.6557 253.514 124.024C256.479 155.686 246.618 187.214 226.14 211.544C220.821 217.914 214.827 223.688 208.263 228.765C207.425 229.419 206.106 230.639 205.255 231.049L204.963 231.041C203.726 229.261 202.891 228.184 201.473 226.546C203.018 227.232 205.588 228.458 207.252 227.915C208.91 226.294 208.149 212.807 209.17 210.076C211.924 203.463 215.507 196.204 219.156 190.046C220.436 187.885 238.029 178.913 236.284 176.062C234.412 174.796 229.246 174.176 226.924 173.901C229.99 167.86 230.652 162.816 230.971 156.158C232.311 128.188 214.816 106.206 211.104 79.3411C210.096 72.0507 209.843 65.061 210.295 57.6821C210.439 55.3294 211.975 48.1757 211.508 46.5433L211.007 46.3787C209.335 46.596 207.892 48.0521 206.678 49.1815C198.401 56.8799 193.667 69.4207 193.41 80.6534C187.344 89.6196 180.078 99.1201 173.603 107.842C171.401 104.385 167.168 99.2607 164.567 95.9463L149.379 76.5214L122.136 41.6016C118.144 36.4905 114.199 31.327 110.211 26.2152C109.334 25.1212 108.634 24.3324 107.392 23.6954C105.093 22.516 101.732 23.7564 100.595 26.0988C98.4007 30.6195 96.4905 35.4883 94.5328 40.178L83.8187 65.7367C72.3699 92.633 61.063 119.589 49.8983 146.605C47.4849 145.876 39.9631 144.32 37.8241 145.943C37.4204 146.455 37.3357 146.953 37.3583 147.587C37.5723 153.587 50.5866 175.94 54.8138 181.21C57.0661 184.018 60.1567 185.919 62.3977 188.654C65.4363 192.362 67.2238 196.101 70.8895 199.543C67.856 202.064 63.6797 205.926 63.8663 210.199C63.8619 211.154 64.3501 212.936 63.5159 213.631C60.1967 216.4 57.3003 219.233 54.3197 222.352Z" fill="white"/>
<path d="M175.532 246.805C168.483 242.307 160.948 238.623 153.069 235.823C151.67 235.325 149.836 234.55 148.373 234.438L148.297 234.183C149.123 233.378 150.053 232.914 151.02 232.304C161.003 226.012 171.115 219.855 180.486 212.666C182.76 215.675 186.463 217.319 189.477 219.946C194.665 224.466 197.308 228.614 201.226 233.942C196.153 237.148 180.905 245.944 175.532 246.805Z" fill="#BEBEB8"/>
<path d="M129.858 237.195C132.599 238.928 141.182 246.392 143.897 245.889C144.621 245.754 145.17 245.29 145.541 244.669C146.426 243.191 146.195 241.035 146.083 239.378C153.275 242.313 161.176 245.332 167.755 249.405C166.644 250.098 160.385 251.264 158.853 251.575C140.02 255.417 120.54 254.665 102.06 249.382C97.9246 248.211 92.7497 246.553 88.9652 244.651C89.8786 244.625 91.6812 244.668 92.4406 244.328C101.386 243.606 105.698 241.98 113.962 238.914C113.649 240.846 113.328 244.058 114.449 245.769C114.819 246.333 115.374 246.674 116.046 246.748C118.909 247.067 127.061 239.11 129.858 237.195Z" fill="#C0D08C"/>
<path d="M70.6656 216.225C73.3935 217.86 77.2862 219.217 80.2019 220.587C89.0675 224.751 102.543 229.395 110.474 234.622C101.394 238.19 94.9402 239.645 84.8891 239.164C83.249 239.086 77.1375 238.186 75.9858 238.3C73.5561 237.756 61.2347 228.425 58.6228 226.277C61.8401 221.874 66.1504 219.046 70.6656 216.225Z" fill="#BEBEB8"/>
<path d="M143.18 135.362C148.401 135.006 178.658 135.233 182.316 137.351C183.952 138.298 185.207 146.982 185.727 149.12C184.07 146.855 182.819 145.165 180.582 143.508C167.348 133.704 149.883 144.801 152.547 160.896C153.598 167.242 156.978 171.483 162.368 174.853C163.551 175.593 164.656 177.679 163.241 178.773C159.431 181.553 154.3 180.771 149.784 180.532C148.028 180.439 143.542 180.913 146.321 184.034C147.1 184.908 151.37 185.029 152.844 185.02C157.707 184.992 164.394 185.53 167.433 180.792C168.662 178.886 168.525 177.312 168.078 175.245C178.023 175.226 182.206 172.129 186.858 163.606C185.724 174.066 184.1 183.493 177.928 192.407C168.972 205.341 155.134 212.133 140.016 214.923C124.138 217.487 107.857 215.432 93.1134 209.004C84.727 205.247 76.9371 199.741 71.1951 192.507C70.6532 191.824 70.1182 191.138 69.8046 190.317L70.0272 190.054C72.1092 190.294 75.244 190.449 74.5628 187.208C74.2819 186.71 73.8521 186.191 73.289 186.035C67.6177 184.467 64.235 183.144 60.4019 178.446C53.6596 170.183 49.5662 160.247 44.5323 150.918C45.6385 151.191 46.9669 151.418 48.0794 151.633C54.4474 152.857 60.1948 156.2 63.9618 161.54C65.1212 163.183 66.325 166.864 68.2599 167.412C69.6363 167.809 70.6223 165.962 70.5361 164.858C70.2611 161.34 65.9816 156.66 63.7881 154.149C85.4593 141.004 118.157 136.323 143.18 135.362Z" fill="#DEAE89"/>
<path d="M127.34 140.513C137.201 139.392 146.103 146.48 147.218 156.341C148.334 166.203 141.24 175.1 131.378 176.209C121.524 177.318 112.636 170.232 111.522 160.379C110.407 150.526 117.488 141.634 127.34 140.513Z" fill="black"/>
<path d="M127.109 145.328C134.396 144.042 141.339 148.926 142.591 156.219C143.843 163.512 138.926 170.432 131.628 171.65C124.377 172.86 117.513 167.982 116.269 160.738C115.025 153.493 119.87 146.606 127.109 145.328Z" fill="#E4DDDD"/>
<path d="M134.181 152.755C136.708 152.847 138.91 153.952 139.825 156.44C140.369 157.919 140.281 159.556 139.582 160.967C138.654 162.847 137.377 163.529 135.502 164.145C130.679 164.219 129.601 161.611 129.314 157.349C129.503 156.885 129.723 156.433 129.97 155.997C131.049 154.073 132.1 153.345 134.181 152.755Z" fill="black"/>
<path d="M138.071 191.115C143.375 191.068 149.1 190.83 154.342 191.255C158.263 191.573 158.076 195.564 153.117 195.503C150.258 195.497 136.081 195.949 134.884 195.036C134.39 194.659 134.047 194.092 133.985 193.471C133.923 192.864 134.161 192.234 134.59 191.804C135.377 191.015 137.019 191.157 138.071 191.115Z" fill="black"/>
<path d="M105.286 30.8684C105.852 31.3011 109.964 36.6517 110.68 37.5684L123.567 54.033L184.762 132.005C181.153 131.329 173.651 130.816 169.844 130.611C152.466 129.658 135.037 130.423 117.809 132.895C97.7641 135.984 77.7374 139.989 60.4227 151.189L54.9668 148.647C56.966 143.467 59.626 137.526 61.7883 132.345L80.4709 88.307L96.6869 50.2369C99.3782 44.0322 102.335 36.8759 105.286 30.8684Z" fill="#C0D08C"/>
<path d="M193.666 89.2084C194.084 89.6551 196.056 100.186 196.626 102.077C203.047 123.393 217.113 145.412 206.595 167.938C205.791 169.659 204.346 172.648 202.885 174.103C192.889 180.342 191.747 177.929 196.784 189.924C194.176 194.515 191.811 199.916 188.777 204.031C188.096 204.955 186.401 205.692 185.319 206.226C183.576 204.393 180.29 201.896 178.144 200.589C180.497 197.982 181.832 196.073 183.714 193.106C183.87 192.867 184.022 192.625 184.17 192.381C187.753 186.484 204.204 148.062 203.012 143.106C201.219 140.957 192.989 144.559 190.548 145.493C189.928 142.999 189.039 140.406 188.246 137.948C190.19 138.398 195.454 139.615 196.638 137.646C196.043 135.789 179.225 114.531 176.978 112.2C182.23 105.187 189.039 96.6058 193.666 89.2084Z" fill="white"/>
<path d="M203.562 63.1484C203.879 63.8416 204.034 71.0856 204.108 72.398C204.488 78.3287 205.382 84.2152 206.78 89.9913C212.175 113.153 226.662 133.738 224.588 158.352C224.071 164.489 222.526 172.349 218.149 176.995C220.186 177.662 222.512 178.615 224.539 179.39C222.564 180.533 217.363 185.09 215.911 185.005C212.965 183.748 208.051 181.684 205.116 180.725C213.262 173.122 216.038 163.338 216.58 152.575C217.542 133.442 207.918 118.166 202.717 100.479C199.334 88.9758 197.489 74.1005 203.562 63.1484Z" fill="#DBF2D2"/>
<path d="M168.151 144.745C175.336 143.831 181.91 148.892 182.863 156.071C183.817 163.25 178.793 169.852 171.619 170.846C164.389 171.847 157.724 166.775 156.762 159.539C155.801 152.303 160.91 145.666 168.151 144.745Z" fill="#E4DDDD"/>
<path d="M173.94 152.481C175.873 152.004 177.914 152.611 179.274 154.066C180.634 155.522 181.1 157.599 180.493 159.496C179.886 161.393 178.301 162.814 176.349 163.21C173.416 163.805 170.545 161.946 169.889 159.026C169.234 156.106 171.034 153.197 173.94 152.481Z" fill="black"/>
<path d="M201.508 185.055C203.209 185.427 210.514 189.062 212.307 189.935C209.799 195.801 206.174 201.67 203.9 207.55C202.914 210.099 203.225 217.029 202.945 220.303L201.086 218.756C197.366 215.823 192.985 213.12 188.967 210.556C191.088 209.64 192.442 209.014 194.444 207.879L194.216 207.877C195.705 202.653 200.013 196.407 202.222 190.969C201.911 189.098 201.705 186.953 201.508 185.055Z" fill="#D2AB48"/>
<path d="M146.156 218.878L146.85 218.823C149.105 220.916 145.774 227.65 144.395 229.782C144.988 213.953 135.726 228.558 130.658 228.619C125.408 228.683 122.582 223.113 115.277 223.808C114.429 225.218 113.995 228.347 113.623 230.12C110.993 225.764 109.884 224.535 108.859 219.467C117.544 220.743 126.348 220.993 135.092 220.213C138.802 219.866 142.416 219.185 146.156 218.878Z" fill="#BEBEB8"/>
<path d="M138.071 191.115C143.375 191.068 149.1 190.83 154.342 191.255C158.263 191.573 158.076 195.564 153.117 195.503C150.258 195.497 136.081 195.949 134.884 195.036C134.39 194.659 134.047 194.092 133.985 193.471C133.923 192.864 134.161 192.234 134.59 191.804C135.377 191.015 137.019 191.157 138.071 191.115Z" fill="#31312C"/>
</g>
<rect x="2.5" y="2.5" width="265" height="265" rx="132.5" stroke="#677D60" stroke-width="5"/>
<defs>
<clipPath id="clip0_10_145">
<rect width="270" height="270" rx="135" fill="white"/>
</clipPath>
</defs>
</svg>
